<svg width="36" height="36" viewBox="0 0 36 36" fill="none" xmlns="http://www.w3.org/2000/svg">
<path d="M9.05631 27.2813C8.77506 27.225 8.55006 27.1688 8.26881 27.0563C7.98756 26.9438 7.76256 26.8875 7.53756 26.775C7.03131 26.55 6.58131 26.2688 6.13131 25.9313C5.23131 25.3125 4.50006 24.4688 3.93756 23.4563C3.37506 22.5 3.03756 21.375 2.98131 20.3063C2.92506 19.7438 2.98131 19.2375 3.03756 18.675C3.09381 18.3938 3.15006 18.1688 3.20631 17.8875C3.26256 17.6063 3.37506 17.3813 3.43131 17.1L3.48756 17.8875C3.48756 18.1688 3.54381 18.3938 3.60006 18.675C3.65631 19.1813 3.76881 19.6875 3.88131 20.1375C4.10631 21.0938 4.44381 21.9938 4.95006 22.8375C5.45631 23.6813 6.01881 24.4688 6.75006 25.2C7.08756 25.5375 7.48131 25.875 7.87506 26.2125C8.04381 26.3813 8.26881 26.55 8.49381 26.7188L9.05631 27.2813Z" fill="#66BCE8"/>
<path d="M8.8875 29.3063C8.71875 29.4188 8.49375 29.475 8.26875 29.5313C8.04375 29.5875 7.875 29.6438 7.65 29.6438C7.25625 29.7 6.80625 29.7563 6.35625 29.7C5.5125 29.6438 4.6125 29.4188 3.88125 29.025C3.09375 28.6313 2.41875 28.0125 1.96875 27.2813C1.74375 26.9438 1.51875 26.55 1.35 26.1563C1.29375 25.9875 1.2375 25.7625 1.18125 25.5375C1.18125 25.3688 1.125 25.2 1.125 24.975C1.29375 25.1438 1.40625 25.3125 1.51875 25.425C1.6875 25.5938 1.8 25.7625 1.9125 25.875C2.19375 26.1563 2.41875 26.4375 2.7 26.6625C3.2625 27.1688 3.825 27.6188 4.5 27.9563C5.11875 28.2938 5.85 28.575 6.525 28.8C6.8625 28.9125 7.25625 28.9688 7.65 29.0813C7.81875 29.1375 8.04375 29.1375 8.2125 29.1938C8.49375 29.25 8.6625 29.25 8.8875 29.3063Z" fill="#66BCE8"/>
<path d="M21.6001 1.96875C21.8813 2.025 22.1063 2.1375 22.3876 2.25C22.6688 2.3625 22.8938 2.475 23.1188 2.5875C23.6251 2.86875 24.0751 3.15 24.5251 3.4875C25.4251 4.1625 26.1563 5.0625 26.6626 6.075C27.1688 7.0875 27.4501 8.2125 27.4501 9.28125C27.4501 9.84375 27.3938 10.35 27.2813 10.9125C27.2251 11.1937 27.1688 11.4187 27.0563 11.7C26.9438 11.9812 26.8876 12.2063 26.7751 12.4313L26.7188 11.6438C26.7188 11.3625 26.7188 11.1375 26.6626 10.8562L26.4938 9.3375C26.3251 8.38125 25.9876 7.425 25.5376 6.525C25.0876 5.625 24.5251 4.8375 23.8501 4.10625C23.5126 3.7125 23.1188 3.375 22.7813 2.98125C22.6126 2.8125 22.3876 2.64375 22.1626 2.475L21.6001 1.96875Z" fill="#66BCE8"/>
<path d="M26.4937 1.74377C26.7187 1.80002 26.8874 1.85627 27.0562 1.96877C27.2249 2.02502 27.4499 2.13752 27.6187 2.25002C27.9562 2.47502 28.2937 2.70002 28.6312 2.98127C29.2499 3.54377 29.7562 4.21877 30.0374 5.00627C30.3749 5.79377 30.4874 6.63752 30.3749 7.48127C30.3187 7.87502 30.2062 8.26877 30.0937 8.66252C30.0374 8.83127 29.9249 9.05627 29.8687 9.22502C29.7562 9.39377 29.6999 9.56252 29.5312 9.73127V8.60627C29.5312 8.21252 29.4749 7.87502 29.4749 7.53752C29.3624 6.80627 29.2499 6.13127 28.9687 5.51252C28.6874 4.83752 28.3499 4.27502 27.9562 3.65627C27.7312 3.37502 27.5062 3.03752 27.2812 2.75627C27.1687 2.58752 27.0562 2.47502 26.8874 2.30627C26.7749 2.02502 26.6062 1.85627 26.4937 1.74377Z" fill="#66BCE8"/>
<path d="M5.62507 10.125C4.50007 10.6313 4.10632 11.9813 4.61257 13.1063L11.7001 27.9L15.6376 26.0438L8.55007 11.1938C8.04382 10.0688 6.75007 9.56252 5.62507 10.125Z" fill="#FFDD67"/>
<path d="M24.2437 21.8813L28.4062 19.9125L20.3062 3.03752C19.7437 1.91252 18.3937 1.40627 17.2125 1.96877C16.0875 2.53127 15.5812 3.88127 16.1437 5.06252L24.2437 21.8813Z" fill="#FFDD67"/>
<path d="M17.2687 1.9125C17.1562 1.96875 17.0437 2.025 16.9312 2.1375C17.9999 1.85625 19.1249 2.3625 19.6312 3.375L27.7312 20.25L28.4624 19.9125L20.3624 3.0375C19.7999 1.85625 18.4499 1.35 17.2687 1.9125Z" fill="#EBA352"/>
<path d="M15.6375 25.9875L19.9687 23.9063L11.7 6.69376C11.1375 5.51251 9.67496 4.95001 8.49371 5.51251C7.31246 6.07501 6.80621 7.53751 7.36871 8.71876L15.6375 25.9875Z" fill="#FFDD67"/>
<path d="M8.49375 5.56876C8.38125 5.62501 8.26875 5.68126 8.15625 5.79376C9.225 5.51251 10.4625 6.01876 10.9687 7.08751L16.0875 17.8313L17.325 18.5625L11.7 6.75001C11.1375 5.51251 9.73125 5.00626 8.49375 5.56876Z" fill="#EBA352"/>
<path d="M19.2937 22.5562L23.625 20.475L15.3562 3.26248C14.7937 2.08123 13.3312 1.51873 12.15 2.13748C10.9687 2.69998 10.4625 4.16248 11.025 5.34373L19.2937 22.5562Z" fill="#FFDD67"/>
<path d="M12.15 2.0813C12.0375 2.13755 11.925 2.25005 11.8125 2.3063C12.8813 2.02505 14.1188 2.5313 14.625 3.60005L20.4187 15.7501L21.6562 16.4813L15.3562 3.26255C14.7937 2.02505 13.3313 1.5188 12.15 2.0813Z" fill="#EBA352"/>
<path d="M5.6251 10.125C5.5126 10.1813 5.4001 10.2375 5.2876 10.35C6.3001 10.0688 7.36885 10.575 7.81885 11.5875L12.0376 20.4188L13.2751 21.15L8.5501 11.25C8.04385 10.0688 6.7501 9.56253 5.6251 10.125Z" fill="#EBA352"/>
<path d="M34.1999 8.43749C32.6812 7.25624 30.2062 8.54999 28.9687 12.6C28.1249 15.4125 28.0124 16.2562 26.2124 17.1L25.1999 15.0187C25.1999 15.0187 9.22494 22.725 9.84369 23.9625C9.84369 23.9625 11.7562 29.925 15.0187 32.6812C19.8562 36.8437 31.1624 32.4 31.6687 21.6562C31.9499 15.4125 35.8312 9.73124 34.1999 8.43749Z" fill="#FFDD67"/>
<path d="M34.2001 8.43751C33.9188 8.21251 33.5813 8.10001 33.2438 8.04376C33.3001 8.10001 33.4126 8.10001 33.4688 8.15626C35.1563 9.45001 33.4126 12.4313 32.4563 15.1313C31.6688 17.2688 30.9938 19.4625 31.1063 21.6C31.5563 30.9375 22.1626 35.3813 16.5376 33.6938C22.0501 36 32.2876 31.6125 31.8376 21.8813C31.7251 19.7438 32.3438 17.6625 33.1876 15.4125C34.0876 12.7125 35.8313 9.73126 34.2001 8.43751Z" fill="#EBA352"/>
<path d="M26.7188 16.875C23.2313 17.2687 18.1125 22.275 21.7125 27.7312C19.0688 22.2187 23.4 18.5063 26.1563 17.2125C26.4375 16.9875 26.7188 16.875 26.7188 16.875Z" fill="#EBA352"/>
</svg>
